<svg width="209" height="47" fill="none" xmlns="http://www.w3.org/2000/svg"><g clip-path="url(#clip0)"><path d="M39.337 23.32c.988 2.94 1.976 5.879 2.94 8.818 1.23 3.823 2.362 7.694 3.471 11.565.12.406.193.836.313 1.29-.41-.072-.361-.382-.458-.598-2.145-5.28-4.41-10.513-7.182-15.53-.217-.383-.458-.765-.7-1.148a40.441 40.441 0 00-3.47-5.471c-1.374-2.008-2.94-3.871-4.773-5.496-.843-.765-1.807-1.338-2.82-1.888-2.338-1.218-4.652-1.242-7.014-.024-1.205.622-2.338 1.386-3.326 2.318-1.615 1.505-2.989 3.226-4.29 5.018-1.11-1.362-2.001-2.843-2.893-4.325 1.953-4.636 4.29-9.032 7.207-13.142.868-1.218 1.784-2.413 2.965-3.393C20.006.717 20.897.502 21.62 0h2.868c2 .717 3.495 2.055 4.724 3.751a66.85 66.85 0 013.447 5.185c1.543 2.581 2.868 5.281 4.073 8.029.121.287.29.573.434.884.723 1.816 1.447 3.656 2.17 5.472z" fill="#026DB0"/><path d="M9.135 17.849c.916 1.482 1.808 2.987 2.893 4.325 1.47 2.127 3.181 4.014 5.254 5.567 4.387 3.274 7.303 3.25 11.714 0 2.05-1.529 3.712-3.44 5.23-5.471a40.432 40.432 0 013.472 5.471c-1.543 3.608-3.158 7.192-5.207 10.562-1.157 1.887-2.338 3.75-3.736 5.471-.385.478-.82.956-1.277 1.386-2.58 2.461-6.195 2.461-8.75-.024-2.265-2.198-3.808-4.898-5.423-7.55-1.735-2.892-3.133-5.926-4.435-9.032a8.413 8.413 0 00-.386-.813l-1.59-4.086c-.772-2.485-1.615-4.946-2.41-7.407C2.867 11.326 1.47 6.332 0 1.386c0-.048.024-.096.048-.167.386.047.386.406.506.645 1.929 3.87 3.664 7.837 5.81 11.612.867 1.482 1.759 2.963 2.771 4.373zM39.337 23.32c-.723-1.84-1.447-3.655-2.17-5.495 2.796-4.038 4.917-8.435 7.014-12.831a523.268 523.268 0 011.832-3.8c.265.264.12.526.073.741-1.977 6.954-4.026 13.883-6.46 20.693-.072.239-.193.478-.29.693z" fill="#F26B22"/><path d="M6.942 23.631l1.59 4.086c-2.94 5.138-5.35 10.538-7.568 16.01-.169.43-.41.86-.602 1.266 0 .024-.097.024-.217.024.506-1.72.988-3.393 1.47-5.09 1.543-5.256 3.157-10.49 4.99-15.627a8.7 8.7 0 00.337-.669zM87.085 36.63h-5.447c-3.808-7.192-7.713-14.528-11.618-21.863-.24.024-.482.071-.699.095V36.01c-1.687 1.123-2.94.645-4.387.55V6.092c1.784-.932 3.712-.406 5.882-.334 3.687 6.738 7.616 13.404 11.352 20.381V6.356c1.784-1.195 3.302-.621 4.941-.621-.024 10.394-.024 20.43-.024 30.895zM113.237 14.313h3.471c1.109.406.579 1.553 1.23 2.293 4.073-3.655 8.098-4.253 11.858.67.555-.502.989-.908 1.447-1.315 4.772-4.11 10.292-2.389 11.593 3.824 1.133 5.495.314 11.063.507 16.534-1.808.645-3.23.454-5.183.191 0-3.799.097-7.646-.024-11.493-.096-2.724.265-6.403-3.688-6.332-3.736.072-3.687 3.513-3.687 6.38.024 3.752 0 7.479 0 11.135-1.688.836-3.134.478-5.159.382 0-3.942.049-7.885-.024-11.851-.048-2.653.217-6.117-3.495-6.07-3.687.048-3.88 3.393-3.856 6.308v11.326c-1.76.67-3.254.526-4.99.168v-22.15zM153.104 34.718c-.313.622-.626 1.219-.94 1.816-1.253.359-2.434.335-3.88-.024V4.35c1.783-.454 3.302-.55 5.158.167v11.565c6.893-3.465 11.111-2.628 13.69 2.437 3.158 6.26 1.085 15.245-4.145 17.92-3.182 1.602-5.881 1.148-9.883-1.72zm.265-9.056h.097c0 .717-.048 1.458 0 2.175.217 2.58 1.47 4.492 4.122 4.826 2.699.335 4.29-1.361 5.061-3.823.747-2.39.723-4.779-.168-7.12-.82-2.127-2.266-3.537-4.676-3.321-2.387.215-3.664 1.816-4.146 3.99-.241 1.075-.193 2.174-.29 3.273zM92.99 47c-.433-1.816-.77-3.202-1.132-4.707 2.724-1.458 5.158-3.083 6.05-6.523-2.459-6.786-5.014-13.835-7.641-21.147 2-.621 3.76-.43 5.688-.167 1.519 4.803 3.013 9.605 4.532 14.384.241-.047.458-.071.699-.12 1.301-4.754 2.603-9.51 3.88-14.168 1.808-.478 3.351-.359 4.893-.192.82.86.193 1.673-.072 2.414-2.603 7.311-4.531 14.886-7.809 21.959-1.784 3.823-4.194 7.048-9.087 8.267zM185.331 14.384h5.061v22.03c-1.036.79-2.362.264-3.543.264-1.036-.359-.603-1.553-1.157-2.055-1.47.86-2.627 1.792-3.977 2.27-4.459 1.648-8.364-.765-9.232-5.95-.915-5.4-.144-10.848-.409-16.2 1.88-.765 3.398-.598 5.327-.168v8.268c0 1.457-.097 2.915.048 4.372.241 2.414.337 5.305 3.712 5.257 3.278-.048 4.121-2.556 4.145-5.376.025-2.915 0-5.83 0-8.745.025-1.195.025-2.39.025-3.967zM208.084 15.388c-.313 1.075-.627 2.198-.964 3.369-2.7-.191-5.954-2.533-7.207 1.625.82 2.079 2.483 2.39 3.905 3.058 4.242 2.031 5.857 4.85 4.917 8.626-.844 3.345-3.905 5.28-8.292 5.233-1.976-.024-3.904-.358-5.64-1.434-.626-1.41.386-2.532.386-4.062 2.193.263 3.88 1.553 5.857 1.267 1.181-.168 2.193-.502 2.579-1.697.458-1.362-.169-2.39-1.35-3.058-.964-.526-2.024-.884-2.989-1.386-3.47-1.744-4.941-4.444-4.242-7.646.699-3.274 3.495-5.4 7.328-5.448 1.928-.048 3.904 0 5.712 1.553zM59.246 36.487c-1.639.406-3.061.382-4.748 0V14.695c1.422-.836 2.964-.478 4.748-.215v22.007z" fill="#026DB0"/><path d="M59.873 8.243c-.265 1.745-1.181 2.94-3.11 2.868-1.952-.096-2.796-1.386-2.723-3.202.072-1.84 1.108-3.01 3.037-2.915 1.928.095 2.675 1.457 2.796 3.25z" fill="#F26B22"/></g><defs><clipPath id="clip0"><path fill="#fff" d="M0 0h209v47H0z"/></clipPath></defs></svg>