<svg width="107" height="25" fill="none" xmlns="http://www.w3.org/2000/svg"><g clip-path="url(#clip0)" fill="#fff"><path d="M20.139 12.044a651.223 651.223 0 011.505 4.553c.63 1.975 1.21 3.974 1.777 5.973.062.21.1.432.16.666-.209-.037-.184-.197-.234-.308-1.098-2.727-2.258-5.43-3.677-8.021a15.04 15.04 0 00-.358-.593 20.911 20.911 0 00-1.777-2.825c-.703-1.037-1.505-2-2.443-2.839-.432-.395-.926-.69-1.444-.975-1.197-.629-2.381-.641-3.59-.012A7.438 7.438 0 008.353 8.86c-.827.778-1.53 1.666-2.196 2.591-.568-.703-1.024-1.468-1.481-2.233 1-2.394 2.196-4.665 3.69-6.787.444-.63.913-1.246 1.517-1.752C10.242.37 10.7.259 11.07 0h1.468c1.025.37 1.79 1.061 2.42 1.937.628.864 1.22 1.765 1.764 2.678.79 1.333 1.468 2.727 2.085 4.146.062.148.148.297.222.457.37.938.74 1.888 1.11 2.826z"/><path d="M4.677 9.218c.469.765.925 1.543 1.48 2.234.753 1.098 1.63 2.073 2.69 2.875 2.247 1.69 3.74 1.678 5.998 0 1.049-.79 1.9-1.777 2.678-2.826a20.91 20.91 0 011.777 2.826c-.79 1.863-1.617 3.714-2.666 5.454-.592.975-1.197 1.937-1.912 2.826-.198.247-.42.494-.654.716-1.32 1.27-3.172 1.27-4.48-.013-1.16-1.135-1.95-2.53-2.776-3.9-.889-1.492-1.605-3.06-2.27-4.664a4.371 4.371 0 00-.198-.42l-.815-2.11c-.395-1.283-.827-2.554-1.234-3.825C1.468 5.85.753 3.271 0 .716 0 .69.012.666.025.629c.197.025.197.21.259.334C1.27 2.962 2.16 5.01 3.258 6.96c.444.765.9 1.53 1.419 2.258zM20.139 12.044c-.37-.95-.74-1.888-1.11-2.838 1.43-2.086 2.517-4.356 3.59-6.627.309-.654.617-1.296.938-1.962.136.136.062.271.037.382-1.012 3.591-2.06 7.17-3.307 10.687-.037.123-.099.247-.148.358z"/><path d="M3.554 12.204l.814 2.11c-1.505 2.654-2.74 5.442-3.874 8.268-.087.222-.21.444-.309.654 0 .012-.05.012-.111.012.26-.888.506-1.752.753-2.628.79-2.715 1.616-5.417 2.554-8.07a4.49 4.49 0 00.173-.346zM44.584 18.917h-2.789c-1.95-3.714-3.948-7.503-5.948-11.29-.123.011-.246.036-.357.048v10.921c-.864.58-1.506.334-2.246.284V3.147c.913-.482 1.9-.21 3.01-.173 1.889 3.48 3.9 6.923 5.813 10.526V3.282c.913-.617 1.69-.32 2.53-.32-.013 5.367-.013 10.55-.013 15.955zM57.973 7.392h1.777c.568.21.296.802.63 1.184 2.085-1.888 4.146-2.196 6.07.346.285-.26.507-.47.741-.679 2.444-2.122 5.27-1.234 5.936 1.974.58 2.839.16 5.714.259 8.54-.926.333-1.654.234-2.653.098 0-1.962.05-3.948-.013-5.935-.049-1.407.136-3.307-1.888-3.27-1.912.037-1.888 1.814-1.888 3.295.013 1.937 0 3.862 0 5.75-.863.432-1.604.247-2.64.197 0-2.036.024-4.072-.013-6.12-.024-1.37.111-3.16-1.789-3.134-1.888.024-1.987 1.752-1.974 3.257v5.85c-.901.345-1.666.27-2.555.086V7.39zM78.383 17.93c-.16.32-.32.63-.48.938-.643.185-1.247.173-1.988-.012V2.245c.914-.235 1.691-.284 2.641.086v5.973c3.53-1.79 5.689-1.358 7.01 1.259 1.616 3.233.555 7.872-2.123 9.255-1.63.826-3.011.592-5.06-.889zm.136-4.677h.05c0 .37-.025.753 0 1.123.11 1.333.752 2.32 2.11 2.493 1.382.172 2.196-.704 2.591-1.975.383-1.234.37-2.468-.086-3.677-.42-1.098-1.16-1.826-2.394-1.715-1.222.11-1.876.938-2.123 2.06-.123.556-.099 1.123-.148 1.691zM47.608 24.273c-.222-.938-.395-1.654-.58-2.431 1.394-.753 2.64-1.592 3.097-3.369-1.259-3.505-2.567-7.145-3.912-10.92 1.024-.322 1.925-.223 2.913-.087.777 2.48 1.542 4.96 2.32 7.428.123-.024.234-.037.357-.061l1.987-7.318c.925-.247 1.715-.185 2.505-.099.42.445.099.864-.037 1.247-1.333 3.776-2.32 7.688-3.998 11.34-.913 1.974-2.147 3.64-4.652 4.27zM94.882 7.429h2.591v11.377c-.53.407-1.209.136-1.814.136-.53-.185-.308-.802-.592-1.061-.752.444-1.345.925-2.036 1.172-2.283.851-4.282-.395-4.726-3.073-.469-2.789-.074-5.602-.21-8.366.963-.395 1.74-.309 2.727-.087v4.27c0 .753-.05 1.505.025 2.258.123 1.247.173 2.74 1.9 2.715 1.678-.025 2.11-1.32 2.123-2.776.012-1.506 0-3.011 0-4.517.012-.617.012-1.234.012-2.048zM106.531 7.947c-.161.555-.321 1.135-.494 1.74-1.382-.099-3.048-1.308-3.689.84.419 1.073 1.271 1.233 1.999 1.579 2.172 1.049 2.998 2.505 2.517 4.454-.432 1.728-1.999 2.728-4.245 2.703-1.012-.013-1.999-.185-2.887-.74-.321-.729.197-1.309.197-2.098 1.123.135 1.987.802 2.999.654.604-.087 1.123-.26 1.32-.877.234-.703-.086-1.234-.691-1.579-.494-.271-1.037-.457-1.53-.716-1.777-.9-2.53-2.295-2.172-3.949.358-1.69 1.789-2.788 3.751-2.813.988-.025 1.999 0 2.925.802zM30.332 18.843c-.84.21-1.568.198-2.431 0V7.59c.728-.432 1.517-.247 2.43-.111v11.365zM30.652 4.257c-.135.901-.604 1.518-1.591 1.481-1-.05-1.432-.716-1.395-1.653.037-.95.568-1.555 1.555-1.506.987.05 1.37.753 1.431 1.678z"/></g><defs><clipPath id="clip0"><path fill="#fff" d="M0 0h107v24.273H0z"/></clipPath></defs></svg>